<?xml version="1.0" encoding="UTF-8"?>
<svg width="501px" height="512px" viewBox="0 0 501 512" version="1.1" xmlns="http://www.w3.org/2000/svg" xmlns:xlink="http://www.w3.org/1999/xlink">
    <g id="Page-1" stroke="none" stroke-width="1" fill="none" fill-rule="evenodd">
        <g id="calendar" fill="#000000">
            <rect id="Rectangle" x="75" y="179" width="104" height="41"></rect>
            <path d="M451.34375,32.191406 L423.769531,32.191406 L423.769531,15.117188 C423.769531,6.769531 417,0 408.652344,0 C400.304688,0 393.535156,6.769531 393.535156,15.117188 L393.535156,32.191406 L363.828125,32.191406 L363.828125,15.117188 C363.828125,6.769531 357.058594,0 348.707031,0 C340.359375,0 333.589844,6.769531 333.589844,15.117188 L333.589844,32.191406 L166.652344,32.191406 L166.652344,15.117188 C166.652344,6.769531 159.882812,0 151.53125,0 C143.183594,0 136.414062,6.769531 136.414062,15.117188 L136.414062,32.191406 L106.707031,32.191406 L106.707031,15.117188 C106.707031,6.769531 99.9375,0 91.585938,0 C83.238281,0 76.46875,6.769531 76.46875,15.117188 L76.46875,32.191406 L48.890625,32.191406 C21.933594,32.191406 2.84217094e-14,54.125 2.84217094e-14,81.085938 L2.84217094e-14,463.109375 C2.84217094e-14,490.066406 21.933594,512 48.890625,512 L451.34375,512 C478.304688,512 500.234375,490.066406 500.234375,463.109375 L500.234375,81.085938 C500.234375,54.125 478.300781,32.191406 451.34375,32.191406 Z M469.996094,463.109375 C469.996094,473.394531 461.628906,481.765625 451.34375,481.765625 L48.890625,481.765625 C38.605469,481.765625 30.234375,473.394531 30.234375,463.109375 L30.234375,157.898438 L469.996094,157.898438 L469.996094,463.109375 Z M30.234375,81.085938 C30.234375,70.796875 38.605469,62.429688 48.890625,62.429688 L76.46875,62.429688 L76.46875,79.503906 C76.46875,87.851562 83.238281,94.621094 91.589844,94.621094 C99.9375,94.621094 106.707031,87.851562 106.707031,79.503906 L106.707031,62.429688 L136.414062,62.429688 L136.414062,79.503906 C136.414062,87.851562 143.183594,94.621094 151.535156,94.621094 C159.882812,94.621094 166.652344,87.851562 166.652344,79.503906 L166.652344,62.429688 L333.589844,62.429688 L333.589844,79.503906 C333.589844,87.851562 340.359375,94.621094 348.710938,94.621094 C357.058594,94.621094 363.828125,87.851562 363.828125,79.503906 L363.828125,62.429688 L393.535156,62.429688 L393.535156,79.503906 C393.535156,87.851562 400.304688,94.621094 408.652344,94.621094 C417.003906,94.621094 423.773438,87.851562 423.773438,79.503906 L423.773438,62.429688 L451.34375,62.429688 C461.628906,62.429688 470,70.796875 470,81.085938 L470,127.660156 L30.234375,127.660156 L30.234375,81.085938 Z" id="Shape" fill-rule="nonzero"></path>
        </g>
    </g>
</svg>