<?xml version="1.0" encoding="UTF-8"?>
<svg width="491px" height="456px" viewBox="0 0 491 456" version="1.1" xmlns="http://www.w3.org/2000/svg" xmlns:xlink="http://www.w3.org/1999/xlink">
    <g id="Page-1" stroke="none" stroke-width="1" fill="none" fill-rule="evenodd">
        <g id="deposit" fill-rule="nonzero">
            <circle id="Oval" fill="#E0F6FF" cx="166.658" cy="147.129" r="137.1"></circle>
            <path d="M490.358,360.629 C490.358,360.329 490.358,360.029 490.258,359.729 C490.258,359.429 490.158,359.129 490.058,358.829 C489.958,358.529 489.958,358.229 489.858,358.029 C489.758,357.729 489.658,357.529 489.458,357.229 C489.358,356.929 489.258,356.729 489.058,356.429 C488.958,356.129 488.758,355.929 488.558,355.729 C488.358,355.529 488.258,355.229 488.058,355.029 C487.858,354.829 487.658,354.629 487.358,354.429 C487.158,354.229 486.958,354.029 486.758,353.829 C486.558,353.629 486.258,353.529 485.958,353.329 C485.758,353.229 485.558,353.029 485.258,352.929 L374.958,298.529 C374.658,298.329 374.358,298.229 373.958,298.129 C372.058,297.429 326.558,281.529 289.358,298.229 L207.258,327.929 C207.058,328.029 206.758,328.129 206.558,328.229 C194.758,333.629 188.558,345.729 191.058,358.429 C193.558,371.029 203.758,379.929 216.558,380.529 C216.658,380.529 216.658,380.529 216.758,380.529 C217.558,380.529 221.158,380.329 258.558,377.929 C274.858,376.929 291.658,375.829 293.158,375.729 C297.858,375.529 301.758,371.729 301.858,366.929 C301.958,361.929 298.058,357.729 292.958,357.629 C292.458,357.629 292.458,357.629 257.458,359.829 C239.958,360.929 220.358,362.229 217.058,362.429 C210.758,361.929 209.258,356.629 208.858,355.029 C208.158,351.629 209.158,347.129 213.858,344.829 L295.858,315.129 C296.058,315.029 296.258,314.929 296.558,314.829 C325.358,301.729 362.958,313.529 367.458,314.929 L416.558,339.129 L389.558,402.829 C376.258,394.629 360.058,392.429 345.058,396.929 L234.858,430.029 C221.758,434.029 207.258,432.529 195.158,425.929 L22.558,332.429 C16.358,329.029 18.358,323.129 18.858,321.929 C19.458,320.329 22.058,315.329 28.358,317.029 L162.458,361.729 C167.158,363.329 172.358,360.729 173.958,356.029 C175.558,351.229 172.958,346.129 168.258,344.529 L33.858,299.629 C33.658,299.529 33.558,299.529 33.358,299.529 C20.058,295.929 7.158,302.329 2.058,315.129 C-3.142,328.029 1.758,341.629 13.958,348.329 L186.658,442.129 C202.958,451.029 222.458,453.029 240.158,447.629 L350.358,414.529 C360.458,411.529 371.358,412.929 380.258,418.629 L436.458,454.029 C436.758,454.229 436.958,454.329 437.258,454.429 C437.358,454.429 437.358,454.529 437.458,454.529 L437.558,454.529 C437.658,454.629 437.758,454.629 437.958,454.629 C438.158,454.729 438.458,454.829 438.658,454.929 C438.758,454.929 438.958,455.029 439.058,455.029 C439.258,455.129 439.558,455.129 439.758,455.229 C439.858,455.229 440.058,455.229 440.158,455.329 C440.558,455.329 440.858,455.429 441.258,455.429 L441.258,455.429 L441.258,455.429 L441.258,455.429 L441.258,455.429 C441.658,455.429 442.058,455.429 442.458,455.329 C442.558,455.329 442.758,455.329 442.858,455.229 C443.158,455.229 443.358,455.129 443.658,455.029 C443.758,455.029 443.958,454.929 444.058,454.929 C444.258,454.829 444.558,454.729 444.758,454.629 C444.858,454.529 445.058,454.529 445.158,454.429 C445.358,454.329 445.558,454.229 445.858,454.029 C445.958,453.929 446.158,453.829 446.258,453.829 C446.458,453.729 446.658,453.529 446.858,453.429 C446.958,453.329 447.158,453.229 447.258,453.129 C447.458,452.929 447.558,452.829 447.758,452.629 C447.858,452.529 447.958,452.429 448.158,452.229 C448.358,452.029 448.458,451.829 448.558,451.629 C448.658,451.529 448.758,451.329 448.858,451.229 C448.858,451.229 448.858,451.129 448.958,451.129 C448.958,451.029 449.058,450.929 449.058,450.929 C449.158,450.729 449.358,450.429 449.458,450.129 L489.458,364.929 C489.558,364.629 489.658,364.429 489.758,364.129 C489.858,363.829 489.958,363.529 490.058,363.329 C490.158,363.029 490.158,362.729 490.158,362.429 C490.158,362.129 490.258,361.829 490.258,361.529 C490.358,361.229 490.358,360.929 490.358,360.629 Z M469.358,365.229 L437.458,433.129 L405.158,412.729 L432.858,347.329 L469.358,365.229 Z" id="Shape" fill="#000000"></path>
            <path d="M153.858,156.229 L179.258,156.229 C189.658,156.229 198.058,164.629 198.058,175.029 C198.058,185.429 189.658,193.829 179.258,193.829 L133.558,193.829 C128.558,193.829 124.458,197.929 124.458,202.929 C124.458,207.929 128.558,212.029 133.558,212.029 L157.458,212.029 L157.458,229.929 C157.458,234.929 161.558,239.029 166.558,239.029 C171.558,239.029 175.658,234.929 175.658,229.929 L175.658,212.029 L179.358,212.029 C199.758,212.029 216.358,195.429 216.358,175.029 C216.358,154.629 199.758,138.029 179.358,138.029 L153.958,138.029 C143.558,138.029 135.158,129.629 135.158,119.229 C135.158,108.829 143.558,100.429 153.958,100.429 L198.858,100.429 C203.858,100.429 207.958,96.329 207.958,91.329 C207.958,86.329 203.858,82.229 198.858,82.229 L175.758,82.229 L175.758,64.729 C175.758,59.729 171.658,55.629 166.658,55.629 C161.658,55.629 157.558,59.729 157.558,64.729 L157.558,82.329 L153.858,82.329 C133.458,82.329 116.858,98.929 116.858,119.329 C116.958,139.629 133.558,156.229 153.858,156.229 Z" id="Path" fill="#000000"></path>
            <path d="M166.658,293.229 C247.258,293.229 312.758,227.629 312.758,147.129 C312.758,66.629 247.158,0.929 166.658,0.929 C86.158,0.929 20.458,66.529 20.458,147.129 C20.458,227.729 86.058,293.229 166.658,293.229 Z M166.658,19.129 C237.258,19.129 294.658,76.529 294.658,147.129 C294.658,217.729 237.258,275.129 166.658,275.129 C96.058,275.129 38.658,217.729 38.658,147.129 C38.658,76.529 96.058,19.129 166.658,19.129 Z" id="Shape" fill="#000000"></path>
        </g>
    </g>
</svg>