<?xml version="1.0" encoding="UTF-8"?>
<svg width="512px" height="512px" viewBox="0 0 512 512" version="1.1" xmlns="http://www.w3.org/2000/svg" xmlns:xlink="http://www.w3.org/1999/xlink">
    <g id="Page-1" stroke="none" stroke-width="1" fill="none" fill-rule="evenodd">
        <g id="dollar">
            <circle id="Oval" fill="#FFFFFF" cx="256" cy="256" r="181"></circle>
            <path d="M256,0 C114.625,0 0,114.625 0,256 C0,397.375 114.625,512 256,512 C397.406,512 512,397.375 512,256 C512,114.625 397.406,0 256,0 Z M325.812,354.844 C313.218,368.969 295.032,377.282 271.25,379.782 L271.25,416 L240.937,416 L240.937,379.969 C201.281,375.907 176.749,352.844 167.281,310.844 L214.156,298.625 C218.5,325.031 232.875,338.219 257.281,338.219 C268.687,338.219 277.125,335.407 282.5,329.75 C287.875,324.093 290.562,317.281 290.562,309.281 C290.562,301 287.874,294.718 282.5,290.468 C277.125,286.188 265.156,280.78 246.625,274.218 C229.969,268.438 216.937,262.749 207.562,257.063 C198.187,251.438 190.562,243.532 184.718,233.375 C178.874,223.187 175.937,211.312 175.937,197.812 C175.937,180.093 181.187,164.124 191.625,149.937 C202.063,135.781 218.5,127.124 240.938,123.968 L240.938,96 L271.251,96 L271.251,123.969 C305.126,128.032 327.064,147.188 337.032,181.469 L295.282,198.594 C287.126,175.094 274.562,163.344 257.501,163.344 C248.938,163.344 242.063,165.969 236.907,171.219 C231.719,176.469 229.126,182.844 229.126,190.313 C229.126,197.938 231.626,203.782 236.626,207.876 C241.595,211.939 252.314,216.97 268.689,223.001 C286.689,229.564 300.814,235.782 311.033,241.626 C321.283,247.47 329.439,255.564 335.564,265.845 C341.658,276.158 344.719,288.19 344.719,301.971 C344.719,323.125 338.406,340.75 325.812,354.844 Z" id="Shape" fill="#032437" fill-rule="nonzero"></path>
        </g>
    </g>
</svg>