<?xml version="1.0" encoding="UTF-8"?>
<svg width="194px" height="253px" viewBox="0 0 194 253" version="1.1" xmlns="http://www.w3.org/2000/svg" xmlns:xlink="http://www.w3.org/1999/xlink">
    <g id="Page-1" stroke="none" stroke-width="1" fill="none" fill-rule="evenodd">
        <g id="menu" transform="translate(97.000000, 126.500000) rotate(-270.000000) translate(-97.000000, -126.500000) translate(-29.500000, 29.500000)" fill="#34536D" fill-rule="nonzero">
            <path d="M53.9061002,24.5 L246.0939,24.5 C249.630301,24.5 252.5,19.1234414 252.5,12.5 C252.5,5.8755611 249.629769,0.5 246.0939,0.5 L53.9061002,0.5 C50.3696986,0.5 47.5,5.8765586 47.5,12.5 C47.5,19.1234414 50.3702311,24.5 53.9061002,24.5 Z" id="Path"></path>
            <path d="M244.125184,85 L7.87481589,85 C3.5276295,85 8.52651283e-14,90.3765586 8.52651283e-14,97 C8.52651283e-14,103.623441 3.5282841,109 7.87481589,109 L244.125184,109 C248.472371,109 252,103.623441 252,97 C252,90.3765586 248.472371,85 244.125184,85 Z" id="Path"></path>
            <path d="M244.636542,169.5 L87.3634581,169.5 C83.0225416,169.5 79.5,174.876559 79.5,181.5 C79.5,188.124439 83.0231953,193.5 87.3634581,193.5 L244.636542,193.5 C248.977458,193.5 252.5,188.123441 252.5,181.5 C252.500654,174.875561 248.977458,169.5 244.636542,169.5 Z" id="Path"></path>
        </g>
    </g>
</svg>