<?xml version="1.0" encoding="UTF-8"?>
<svg width="512px" height="506px" viewBox="0 0 512 506" version="1.1" xmlns="http://www.w3.org/2000/svg" xmlns:xlink="http://www.w3.org/1999/xlink">
    <g id="Page-1" stroke="none" stroke-width="1" fill="none" fill-rule="evenodd">
        <g id="money">
            <circle id="Oval" fill="#E0F6FF" cx="343" cy="336" r="154"></circle>
            <path d="M341.954,325.358 C329.823,325.358 319.954,316.816 319.954,306.317 C319.954,295.817 329.823,287.275 341.954,287.275 C354.085,287.275 363.954,295.817 363.954,306.317 C363.954,311.839 368.432,316.317 373.954,316.317 C379.476,316.317 383.954,311.839 383.954,306.317 C383.954,287.992 370.3,272.584 351.954,268.402 L351.954,263.201 C351.954,257.679 347.476,253.201 341.954,253.201 C336.432,253.201 331.954,257.679 331.954,263.201 L331.954,268.402 C313.608,272.584 299.954,287.992 299.954,306.317 C299.954,327.844 318.795,345.358 341.954,345.358 C354.085,345.358 363.954,353.9 363.954,364.4 C363.954,374.9 354.085,383.442 341.954,383.442 C329.823,383.442 319.954,374.9 319.954,364.4 C319.954,358.878 315.476,354.4 309.954,354.4 C304.432,354.4 299.954,358.878 299.954,364.4 C299.954,382.725 313.608,398.133 331.954,402.315 L331.954,406.635 C331.954,412.157 336.432,416.635 341.954,416.635 C347.476,416.635 351.954,412.157 351.954,406.635 L351.954,402.315 C370.3,398.133 383.954,382.725 383.954,364.4 C383.954,342.872 365.113,325.358 341.954,325.358 Z" id="Path" fill="#000000" fill-rule="nonzero"></path>
            <path d="M451.482,265.876 C438.419,245.521 420.015,229.233 398.26,218.775 C393.281,216.381 387.306,218.477 384.914,223.455 C382.521,228.433 384.616,234.407 389.594,236.8 C427.505,255.024 452,293.963 452,336.001 C452,353.989 447.566,371.828 439.179,387.592 C436.585,392.467 438.434,398.523 443.31,401.117 C444.806,401.913 446.414,402.291 447.998,402.291 C451.576,402.291 455.037,400.365 456.835,396.986 C466.756,378.342 472,357.253 472,336.001 C472,311.041 464.905,286.792 451.482,265.876 Z" id="Path" fill="#000000" fill-rule="nonzero"></path>
            <path d="M357.673,206.002 L357,206.001 C351.478,206.001 347,210.478 347,216.001 C347,221.524 351.478,226.001 357,226.001 L357.579,226.002 C357.595,226.002 357.61,226.002 357.627,226.002 C363.128,226.002 367.6,221.556 367.626,216.049 C367.651,210.526 363.195,206.028 357.673,206.002 Z" id="Path" fill="#000000" fill-rule="nonzero"></path>
            <path d="M294.407,435.202 C256.497,416.977 232.002,378.038 232.002,336.001 C232.002,318.013 236.436,300.174 244.823,284.41 C247.417,279.535 245.568,273.479 240.692,270.885 C235.818,268.291 229.76,270.14 227.167,275.016 C217.246,293.661 212.002,314.749 212.002,336.001 C212.002,360.961 219.097,385.209 232.52,406.126 C245.583,426.481 263.987,442.769 285.742,453.228 C287.139,453.9 288.615,454.217 290.068,454.217 C293.792,454.217 297.366,452.128 299.088,448.548 C301.479,443.57 299.385,437.595 294.407,435.202 Z" id="Path" fill="#000000" fill-rule="nonzero"></path>
            <path d="M327.002,446.001 L326.423,445.999 C320.875,445.989 316.403,450.428 316.378,455.952 C316.352,461.475 320.81,465.973 326.332,465.999 L327.002,466.001 C332.524,466.001 337.002,461.523 337.002,456.001 C337.002,450.479 332.524,446.001 327.002,446.001 Z" id="Path" fill="#000000" fill-rule="nonzero"></path>
            <path d="M387.409,172.168 C386.192,169.268 384.701,166.535 382.966,164 L409,164 C434.364,164 455,143.364 455,118 C455,92.636 434.364,72 409,72 L328.92,72 C334.011,64.598 337,55.643 337,46 C337,20.636 316.364,0 291,0 L46,0 C20.636,0 0,20.636 0,46 C0,71.364 20.636,92 46,92 L126.08,92 C120.989,99.402 118,108.357 118,118 C118,127.643 120.988,136.598 126.08,144 L100,144 C74.636,144 54,164.636 54,190 C54,204.567 60.814,217.566 71.415,226 C60.814,234.434 54,247.433 54,262 C54,276.567 60.814,289.566 71.415,298 C60.814,306.434 54,319.433 54,334 C54,348.567 60.814,361.566 71.415,370 C60.814,378.434 54,391.433 54,406 C54,431.364 74.636,452 100,452 L217.85,452 C248.896,485.207 293.062,506.001 342.001,506.001 C435.739,506.001 512.001,429.739 512.001,336.001 C512.001,257.984 459.171,192.083 387.409,172.168 Z M409,92 C423.337,92 435,103.664 435,118 C435,132.336 423.337,144 409,144 L345,144 L164,144 C149.663,144 138,132.336 138,118 C138,103.664 149.663,92 164,92 L409,92 Z M46,72 C31.663,72 20,60.336 20,46 C20,31.664 31.663,20 46,20 L291,20 C305.337,20 317,31.664 317,46 C317,60.336 305.337,72 291,72 L46,72 Z M100,164 L345,164 C349.028,164 352.885,164.936 356.345,166.612 C351.615,166.215 346.833,166.001 342.001,166.001 C295.056,166.001 252.496,185.13 221.702,216 L100,216 C85.664,216 74,204.336 74,190 C74,175.664 85.664,164 100,164 Z M100,236 L204.615,236 C193.263,251.553 184.486,269.095 178.912,288 L100,288 C85.663,288 74,276.337 74,262 C74,247.664 85.663,236 100,236 Z M100,308 L174.32,308 C172.803,317.113 172.001,326.464 172.001,336.001 C172.001,344.147 172.59,352.157 173.703,360 L100,360 C85.663,360 74,348.337 74,334 C74,319.663 85.663,308 100,308 Z M100,432 C85.663,432 74,420.337 74,406 C74,391.663 85.663,380 100,380 L177.786,380 C182.832,398.813 191.029,416.346 201.779,432 L100,432 Z M342.001,486.001 C259.291,486.001 192.001,418.711 192.001,336.001 C192.001,253.291 259.291,186.001 342.001,186.001 C424.711,186.001 492.001,253.291 492.001,336.001 C492.001,418.711 424.711,486.001 342.001,486.001 Z" id="Shape" fill="#000000" fill-rule="nonzero"></path>
        </g>
    </g>
</svg>