<?xml version="1.0" encoding="UTF-8"?>
<svg width="480px" height="480px" viewBox="0 0 480 480" version="1.1" xmlns="http://www.w3.org/2000/svg" xmlns:xlink="http://www.w3.org/1999/xlink">
    <g id="Page-1" stroke="none" stroke-width="1" fill="none" fill-rule="evenodd">
        <g id="restaurant" fill-rule="nonzero">
            <circle id="Oval" fill="#FFFFFF" cx="240" cy="240" r="232"></circle>
            <circle id="Oval" fill="#E0F6FF" cx="240" cy="240" r="152"></circle>
            <path d="M342.552,205.776 C345.133,191.105 344.226,176.032 339.904,161.776 L334.768,144.872 C328.244,125.67 307.389,115.393 288.187,121.917 C277.385,125.587 268.902,134.07 265.232,144.872 L260.096,161.776 C255.774,176.032 254.867,191.105 257.448,205.776 C259.802,218.128 267.644,228.74 278.76,234.616 L273.008,363.2 C272.238,370.377 274.566,377.542 279.408,382.896 C289.821,394.286 307.497,395.078 318.887,384.665 C319.503,384.102 320.093,383.512 320.656,382.896 C325.39,377.694 327.714,370.739 327.056,363.736 L321.272,234.6 C332.373,228.721 340.202,218.116 342.552,205.776 L342.552,205.776 Z M326.792,202.992 C325.06,211.866 318.736,219.147 310.192,222.104 C306.949,223.323 304.86,226.491 305.016,229.952 L311.096,365 C311.376,367.649 310.502,370.29 308.696,372.248 C303.879,377.017 296.121,377.017 291.304,372.248 C289.408,370.132 288.547,367.284 288.952,364.472 L294.984,229.952 C295.14,226.491 293.051,223.323 289.808,222.104 C281.264,219.147 274.94,211.866 273.208,202.992 C271.068,190.812 271.822,178.299 275.408,166.464 L280.544,149.552 C284.518,138.807 296.45,133.318 307.196,137.292 C312.877,139.393 317.355,143.872 319.456,149.552 L324.592,166.464 C328.174,178.3 328.928,190.812 326.792,202.992 L326.792,202.992 Z" id="Shape" fill="#000000"></path>
            <path d="M221.656,205.656 C223.156,204.156 224,202.122 224,200 L224,128 C224,123.582 220.418,120 216,120 C211.582,120 208,123.582 208,128 L208,196.688 L186.344,218.344 C184.742,219.941 183.89,222.141 184,224.4 L191,364.4 C191.167,367.419 190.071,370.372 187.976,372.552 C183.597,376.97 176.465,377.002 172.046,372.622 C172.022,372.599 171.999,372.575 171.976,372.552 C169.881,370.372 168.785,367.419 168.952,364.4 L176,224.4 C176.112,222.142 175.263,219.942 173.664,218.344 L152,196.688 L152,128 C152,123.582 148.418,120 144,120 C139.582,120 136,123.582 136,128 L136,200 C136,202.122 136.844,204.156 138.344,205.656 L159.832,227.152 L153.008,363.624 C152.282,378.531 163.778,391.205 178.685,391.931 C193.592,392.657 206.266,381.161 206.992,366.254 C207.035,365.378 207.035,364.501 206.992,363.625 L200.168,227.153 L221.656,205.656 Z" id="Path" fill="#000000"></path>
            <path d="M168,200 C172.418,200 176,196.418 176,192 L176,128 C176,123.582 172.418,120 168,120 C163.582,120 160,123.582 160,128 L160,192 C160,196.418 163.582,200 168,200 Z" id="Path" fill="#000000"></path>
            <path d="M184,128 L184,192 C184,196.418 187.582,200 192,200 C196.418,200 200,196.418 200,192 L200,128 C200,123.582 196.418,120 192,120 C187.582,120 184,123.582 184,128 Z" id="Path" fill="#000000"></path>
            <path d="M240,0 C107.452,0 0,107.452 0,240 C0,372.548 107.452,480 240,480 C372.548,480 480,372.548 480,240 C479.85,107.514 372.486,0.15 240,0 Z M240,464 C116.288,464 16,363.712 16,240 C16,116.288 116.288,16 240,16 C363.712,16 464,116.288 464,240 C463.859,363.653 363.653,463.859 240,464 Z" id="Shape" fill="#000000"></path>
            <path d="M256.952,383.016 C245.689,384.324 234.311,384.324 223.048,383.016 C218.658,382.501 214.683,385.642 214.168,390.032 C213.653,394.422 216.794,398.397 221.184,398.912 C233.675,400.371 246.293,400.371 258.784,398.912 C263.181,398.483 266.398,394.57 265.969,390.172 C265.54,385.775 261.627,382.558 257.229,382.987 C257.126,382.997 257.023,383.009 256.92,383.023 L256.952,383.016 Z" id="Path" fill="#000000"></path>
            <path d="M351.096,135.952 C347.719,138.8 347.289,143.846 350.136,147.224 C398.371,204.484 394.681,289.153 341.648,342 C338.518,345.119 338.509,350.186 341.628,353.316 C344.747,356.446 349.814,356.455 352.944,353.336 C411.881,294.623 415.991,200.541 362.4,136.912 C359.561,133.527 354.515,133.084 351.13,135.924 C351.118,135.933 351.107,135.943 351.096,135.952 Z" id="Path" fill="#000000"></path>
            <path d="M186.352,105.744 C187.317,105.742 188.274,105.566 189.176,105.224 C216.294,95.083 245.822,93.272 273.976,100.024 C278.271,101.062 282.594,98.423 283.632,94.128 C284.67,89.833 282.031,85.51 277.736,84.472 C246.471,76.979 213.681,78.993 183.568,90.256 C179.432,91.811 177.341,96.424 178.896,100.56 C180.07,103.682 183.057,105.747 186.392,105.744 L186.352,105.744 Z" id="Path" fill="#000000"></path>
            <path d="M96,240 C95.921,209.554 105.565,179.878 123.528,155.296 C126.183,151.764 125.472,146.749 121.94,144.094 C118.408,141.439 113.393,142.15 110.738,145.682 C110.691,145.745 110.645,145.808 110.6,145.872 C64.347,209.46 71.153,297.231 126.656,352.928 C129.784,356.058 134.858,356.06 137.988,352.932 C141.118,349.804 141.12,344.73 137.992,341.6 L137.992,341.6 C111.023,314.677 95.908,278.108 96,240 L96,240 Z" id="Path" fill="#000000"></path>
        </g>
    </g>
</svg>