<?xml version="1.0" encoding="UTF-8"?>
<svg width="490px" height="445px" viewBox="0 0 490 445" version="1.1" xmlns="http://www.w3.org/2000/svg" xmlns:xlink="http://www.w3.org/1999/xlink">
    <g id="Page-1" stroke="none" stroke-width="1" fill="none" fill-rule="evenodd">
        <g id="shopping-bag" fill-rule="nonzero">
            <path d="M463.7,435.8 L257.4,435.8 C248.2,435.8 240.8,428.4 240.8,419.2 L240.8,220.6 L480.200989,220.6 L480.2,419.2 C480.3,428.3 472.8,435.8 463.7,435.8 Z" id="XMLID_455_" fill="#E0F6FF"></path>
            <path d="M62.9,444.8 L201.3,444.8 C206.3,444.8 210.4,440.7 210.4,435.7 C210.4,430.7 206.3,426.6 201.3,426.6 L62.9,426.6 C38.2,426.6 18.2,406.5 18.2,381.9 L18.2,95.1 L80,95.1 L80,133.4 C80,138.4 84.1,142.5 89.1,142.5 C94.1,142.5 98.2,138.4 98.2,133.4 L98.2,95.1 L219.4,95.1 L219.4,133.4 C219.4,138.4 223.5,142.5 228.5,142.5 C233.5,142.5 237.6,138.4 237.6,133.4 L237.6,95.1 L299.4,95.1 L299.4,115.5 C299.4,120.5 303.5,124.6 308.5,124.6 C313.5,124.6 317.6,120.5 317.6,115.5 L317.6,86 C317.6,81 313.5,76.9 308.5,76.9 L237.6,76.9 C236.4,34.5 201.6,0.5 158.9,0.5 C116.2,0.5 81.4,34.6 80.2,76.9 L9.1,76.9 C4.1,76.9 0,81 0,86 L0,381.9 C0.1,416.6 28.3,444.8 62.9,444.8 Z M158.7,18.7 C191.3,18.7 218,44.6 219.3,77 L98.2,77 C99.4,44.6 126.1,18.7 158.7,18.7 Z" id="Shape" fill="#000000"></path>
            <path d="M296.3,199.4 L296.3,211.6 L240.8,211.6 C235.8,211.6 231.7,215.7 231.7,220.7 L231.7,402.4 C231.7,425.8 250.7,444.9 274.2,444.9 L446.9,444.9 C470.3,444.9 489.4,425.9 489.4,402.4 L489.4,220.6 C489.4,215.6 485.3,211.5 480.3,211.5 L424.8,211.5 L424.8,199.3 C424.8,163.9 396,135.1 360.6,135.1 C325.2,135.1 296.3,164 296.3,199.4 Z M471.2,229.7 L471.2,402.4 C471.2,415.8 460.3,426.7 446.9,426.7 L274.2,426.7 C260.8,426.7 249.9,415.8 249.9,402.4 L249.9,229.7 L296.3,229.7 L296.3,255.2 C296.3,260.2 300.4,264.3 305.4,264.3 C310.4,264.3 314.5,260.2 314.5,255.2 L314.5,229.7 L406.7,229.7 L406.7,255.2 C406.7,260.2 410.8,264.3 415.8,264.3 C420.8,264.3 424.9,260.2 424.9,255.2 L424.9,229.7 L471.2,229.7 L471.2,229.7 Z M360.5,153.3 C385.9,153.3 406.6,174 406.6,199.4 L406.6,211.6 L314.4,211.6 L314.4,199.4 C314.5,173.9 335.1,153.3 360.5,153.3 Z" id="Shape" fill="#000000"></path>
        </g>
    </g>
</svg>