<?xml version="1.0" encoding="UTF-8"?>
<svg width="366px" height="300px" viewBox="0 0 366 300" version="1.1" xmlns="http://www.w3.org/2000/svg" xmlns:xlink="http://www.w3.org/1999/xlink">
    <g id="Page-1" stroke="none" stroke-width="1" fill="none" fill-rule="evenodd">
        <g id="sim-card" transform="translate(183.000000, 150.000000) rotate(-90.000000) translate(-183.000000, -150.000000) translate(33.000000, -33.000000)" fill-rule="nonzero">
            <path d="M248.398438,358.003906 L51.601562,358.003906 C27.355469,358.003906 7.699219,338.347656 7.699219,314.101562 L7.699219,51.453125 C7.699219,27.210938 27.355469,7.554688 51.601562,7.554688 L248.398438,7.554688 C272.644531,7.554688 292.300781,27.210938 292.300781,51.453125 L292.300781,314.101562 C292.300781,338.347656 272.644531,358.003906 248.398438,358.003906 L248.398438,358.003906 Z" id="Path" fill="#FFCC3B"></path>
            <path d="M248.398438,7.554688 L234.226562,7.554688 L234.226562,358.003906 L248.398438,358.003906 C272.644531,358.003906 292.300781,338.347656 292.300781,314.101562 L292.300781,51.453125 C292.300781,27.210938 272.644531,7.554688 248.398438,7.554688 L248.398438,7.554688 Z" id="Path" fill="#EFB525"></path>
            <path d="M124.886719,126.246094 L175.121094,126.246094 C186.191406,126.246094 195.167969,117.273438 195.167969,106.199219 L195.167969,7.554688 L104.839844,7.554688 L104.839844,106.199219 C104.839844,117.269531 113.8125,126.246094 124.886719,126.246094 Z" id="Path" fill="#FFD876"></path>
            <path d="M175.121094,239.3125 L124.886719,239.3125 C113.8125,239.3125 104.839844,248.285156 104.839844,259.359375 L104.839844,358.003906 L195.167969,358.003906 L195.167969,259.359375 C195.167969,248.285156 186.191406,239.3125 175.121094,239.3125 Z" id="Path" fill="#FFD876"></path>
            <path d="M248.398438,0.054688 L51.601562,0.054688 C23.257812,0.054688 0.199219,23.113281 0.199219,51.453125 L0.199219,314.101562 C0.199219,342.445312 23.261719,365.503906 51.601562,365.503906 L248.398438,365.503906 C276.742188,365.503906 299.800781,342.441406 299.800781,314.101562 L299.800781,51.453125 C299.800781,23.113281 276.742188,0.054688 248.398438,0.054688 Z M15.199219,51.453125 C15.199219,31.382812 31.527344,15.054688 51.601562,15.054688 L97.335938,15.054688 L97.335938,42.523438 C97.335938,46.664062 100.691406,50.023438 104.835938,50.023438 C108.976562,50.023438 112.335938,46.664062 112.335938,42.523438 L112.335938,15.054688 L187.664062,15.054688 L187.664062,106.199219 C187.664062,107.457031 187.476562,108.671875 187.132812,109.816406 C187.066406,109.996094 187.003906,110.179688 186.953125,110.367188 C185.230469,115.242188 180.574219,118.746094 175.117188,118.746094 L124.882812,118.746094 C119.421875,118.746094 114.769531,115.242188 113.046875,110.367188 C112.992188,110.179688 112.933594,109.996094 112.867188,109.816406 C112.519531,108.671875 112.335938,107.457031 112.335938,106.199219 L112.335938,77.546875 C112.335938,73.40625 108.976562,70.046875 104.835938,70.046875 C100.691406,70.046875 97.335938,73.40625 97.335938,77.546875 L97.335938,104.921875 L93.894531,104.921875 C65.785156,104.921875 40.210938,121.519531 28.746094,147.203125 C28.242188,148.328125 27.105469,149.058594 25.851562,149.058594 L15.199219,149.058594 L15.199219,51.453125 Z M97.335938,350.503906 L51.601562,350.503906 C31.53125,350.503906 15.199219,334.175781 15.199219,314.101562 L15.199219,216.5 L25.851562,216.5 C27.105469,216.5 28.242188,217.226562 28.746094,218.355469 C40.214844,244.039062 65.785156,260.636719 93.898438,260.636719 L97.335938,260.636719 L97.335938,350.503906 Z M284.800781,314.101562 C284.800781,334.175781 268.472656,350.503906 248.398438,350.503906 L202.664062,350.503906 L202.664062,320.34375 C202.664062,316.199219 199.308594,312.84375 195.164062,312.84375 C191.023438,312.84375 187.664062,316.199219 187.664062,320.34375 L187.664062,350.503906 L112.335938,350.503906 L112.335938,259.355469 C112.335938,258.101562 112.523438,256.886719 112.867188,255.742188 C112.933594,255.5625 112.996094,255.375 113.050781,255.1875 C114.773438,250.3125 119.425781,246.808594 124.882812,246.808594 L175.117188,246.808594 C180.574219,246.808594 185.230469,250.3125 186.953125,255.1875 C187.007812,255.375 187.066406,255.5625 187.136719,255.742188 C187.480469,256.886719 187.664062,258.101562 187.664062,259.355469 L187.664062,285.320312 C187.664062,289.460938 191.023438,292.820312 195.164062,292.820312 C199.308594,292.820312 202.664062,289.460938 202.664062,285.320312 L202.664062,260.636719 L206.105469,260.636719 C234.214844,260.636719 259.789062,244.039062 271.253906,218.355469 C271.757812,217.226562 272.894531,216.5 274.148438,216.5 L284.800781,216.5 L284.800781,314.101562 Z M284.800781,201.5 L274.148438,201.5 C266.984375,201.5 260.472656,205.714844 257.558594,212.238281 C248.5,232.527344 228.304688,245.636719 206.105469,245.636719 L199,245.636719 C194.234375,237.378906 185.316406,231.808594 175.117188,231.808594 L124.882812,231.808594 C114.6875,231.808594 105.765625,237.378906 101.003906,245.636719 L93.898438,245.636719 C71.699219,245.636719 51.5,232.527344 42.445312,212.238281 C39.53125,205.714844 33.019531,201.5 25.851562,201.5 L15.199219,201.5 L15.199219,164.058594 L25.851562,164.058594 C33.015625,164.058594 39.527344,159.84375 42.441406,153.320312 C51.5,133.03125 71.695312,119.921875 93.894531,119.921875 L101,119.921875 C105.765625,128.179688 114.683594,133.746094 124.882812,133.746094 L175.117188,133.746094 C185.3125,133.746094 194.234375,128.179688 198.996094,119.921875 L206.101562,119.921875 C228.304688,119.921875 248.5,133.03125 257.554688,153.320312 C260.46875,159.84375 266.980469,164.058594 274.148438,164.058594 L284.800781,164.058594 L284.800781,201.5 Z M284.800781,149.058594 L274.148438,149.058594 C272.894531,149.058594 271.757812,148.328125 271.253906,147.203125 C259.789062,121.515625 234.214844,104.921875 206.105469,104.921875 L202.664062,104.921875 L202.664062,15.054688 L248.398438,15.054688 C268.472656,15.054688 284.800781,31.382812 284.800781,51.453125 L284.800781,149.058594 Z" id="Shape" fill="#000000"></path>
        </g>
    </g>
</svg>