<?xml version="1.0" encoding="UTF-8"?>
<svg width="48px" height="16px" viewBox="0 0 48 16" version="1.1" xmlns="http://www.w3.org/2000/svg" xmlns:xlink="http://www.w3.org/1999/xlink">
    <g id="Page-1" stroke="none" stroke-width="1" fill="none" fill-rule="evenodd">
        <g id="visa-pay-logo" fill="#FFFFFF" fill-rule="nonzero">
            <polygon id="Path" points="19.153 0.799 16.722 15.065 20.61 15.065 23.043 0.799"></polygon>
            <path d="M13.462,0.815 L9.654,10.544 L9.248,9.075 C8.497,7.305 6.365,4.763 3.862,3.161 L7.344,15.058 L11.458,15.051 L17.581,0.812 L13.462,0.815 Z" id="Path"></path>
            <path d="M7.772,1.836 C7.546,0.967 6.891,0.708 6.078,0.677 L0.05,0.677 L0,0.961 C4.691,2.099 7.795,4.841 9.083,8.138 L7.772,1.836 Z" id="Path"></path>
            <path d="M30.923,3.534 C32.195,3.514 33.117,3.792 33.833,4.08 L34.184,4.245 L34.71,1.153 C33.94,0.864 32.733,0.554 31.227,0.554 C27.385,0.554 24.677,2.489 24.656,5.262 C24.631,7.311 26.585,8.455 28.061,9.138 C29.576,9.838 30.084,10.283 30.077,10.908 C30.065,11.863 28.869,12.301 27.752,12.301 C26.195,12.301 25.368,12.086 24.091,11.554 L23.59,11.326 L23.043,14.519 C23.953,14.918 25.632,15.261 27.375,15.279 C31.462,15.279 34.118,13.367 34.146,10.404 C34.163,8.783 33.126,7.546 30.879,6.531 C29.519,5.869 28.687,5.429 28.695,4.761 C28.695,4.168 29.401,3.534 30.923,3.534 Z" id="Path"></path>
            <path d="M44.688,0.815 L41.684,0.815 C40.751,0.815 40.057,1.069 39.647,1.999 L33.874,15.073 L37.957,15.073 C37.957,15.073 38.623,13.315 38.774,12.93 C39.221,12.93 43.188,12.936 43.753,12.936 C43.869,13.434 44.227,15.073 44.227,15.073 L47.834,15.073 L44.688,0.815 Z M39.893,10.01 C40.213,9.191 41.442,6.023 41.442,6.023 C41.421,6.062 41.759,5.198 41.96,4.661 L42.222,5.891 C42.222,5.891 42.967,9.297 43.123,10.01 L39.893,10.01 Z" id="Shape"></path>
        </g>
    </g>
</svg>